<svg id="Capa_1" enable-background="new 0 0 511.964 511.964" height="512" viewBox="0 0 511.964 511.964" width="512" xmlns="http://www.w3.org/2000/svg"><g><g><path d="m332.047 207.267h-152.13c-8.284 0-15-6.716-15-15v-63.781c0-28.297 23.021-51.319 51.318-51.319h79.492c28.298 0 51.319 23.022 51.319 51.319v63.781c.001 8.285-6.715 15-14.999 15zm-137.13-30h122.13v-48.781c0-11.755-9.563-21.319-21.319-21.319h-79.492c-11.755 0-21.318 9.564-21.318 21.319v48.781z" fill="#3b66c1"/></g><g fill="#30579d"><path d="m164.917 131.621h30v37.717h-30z"/><path d="m317.047 131.621h30v37.717h-30z"/></g><path d="m446.479 434.797h-380.993c-12.42 0-22.489-10.068-22.489-22.489v-227.552c0-12.42 10.068-22.489 22.489-22.489h380.993c12.42 0 22.489 10.068 22.489 22.489v227.553c-.001 12.42-10.069 22.488-22.489 22.488z" fill="#ecbe6b"/><path d="m446.479 162.267h-22.014c12.42 0 22.489 10.068 22.489 22.489v227.553c0 12.42-10.069 22.489-22.489 22.489h22.014c12.42 0 22.489-10.068 22.489-22.489v-227.553c-.001-12.42-10.069-22.489-22.489-22.489z" fill="#eab14d"/><path d="m373.884 246.618h-235.803c-14.17 0-25.657-11.487-25.657-25.657v-58.694h287.117v58.694c0 14.17-11.487 25.657-25.657 25.657z" fill="#e4936b"/><path d="m376.289 162.267v58.693c0 14.17-11.487 25.657-25.657 25.657h23.251c14.17 0 25.657-11.487 25.657-25.657v-58.693z" fill="#e27d47"/><g fill="#3b66c1"><path d="m209.576 283.122h-17.74c-4.886 0-8.645-4.318-7.973-9.157l3.8-27.347h26.085l3.8 27.347c.673 4.839-3.086 9.157-7.972 9.157z"/><path d="m42.997 238.339-32.16 38.846c-3.896 4.706-4.451 11.341-1.39 16.628 4.901 8.466 16.577 9.813 23.277 2.686l10.272-10.928v-47.232z"/><path d="m468.967 238.339 32.16 38.846c3.896 4.706 4.451 11.341 1.39 16.628-4.901 8.466-16.577 9.813-23.277 2.686l-10.272-10.928v-47.232z"/></g><g fill="#698ed5"><path d="m197.749 185.237h-35.665c-3.542 0-6.414-2.872-6.414-6.414v-24.888c0-3.542 2.872-6.414 6.414-6.414h35.665c3.542 0 6.414 2.872 6.414 6.414v24.888c0 3.542-2.871 6.414-6.414 6.414z"/><path d="m349.88 185.237h-35.665c-3.542 0-6.414-2.872-6.414-6.414v-24.888c0-3.542 2.872-6.414 6.414-6.414h35.665c3.542 0 6.414 2.872 6.414 6.414v24.888c0 3.542-2.872 6.414-6.414 6.414z"/></g><path d="m197.749 147.52h-18.831c3.542 0 6.414 2.872 6.414 6.414v24.888c0 3.542-2.872 6.414-6.414 6.414h18.831c3.542 0 6.414-2.872 6.414-6.414v-24.888c0-3.542-2.871-6.414-6.414-6.414z" fill="#4073c8"/><path d="m349.88 147.52h-18.831c3.542 0 6.414 2.872 6.414 6.414v24.888c0 3.542-2.872 6.414-6.414 6.414h18.831c3.542 0 6.414-2.872 6.414-6.414v-24.888c0-3.542-2.872-6.414-6.414-6.414z" fill="#4073c8"/><g><path d="m132.23 349.405c.001 13.201 10.738 24.127 23.935 24.356.044.001.088.001.133.001 4.081 0 7.425-3.272 7.496-7.37.071-4.142-3.228-7.557-7.369-7.629-5.069-.088-9.193-4.287-9.194-9.359v-2.289c0-4.143-3.357-7.5-7.5-7.5s-7.5 3.357-7.5 7.5v2.29z"/><path d="m270.244 373.766c4.143 0 7.5-3.357 7.5-7.5s-3.357-7.5-7.5-7.5h-28.487c-4.143 0-7.5 3.357-7.5 7.5s3.357 7.5 7.5 7.5z"/><path d="m327.218 373.766c4.143 0 7.5-3.357 7.5-7.5s-3.357-7.5-7.5-7.5h-28.487c-4.143 0-7.5 3.357-7.5 7.5s3.357 7.5 7.5 7.5z"/><path d="m372.235 326.093c4.143 0 7.5-3.357 7.5-7.5v-28.487c0-4.143-3.357-7.5-7.5-7.5s-7.5 3.357-7.5 7.5v28.487c0 4.142 3.357 7.5 7.5 7.5z"/><path d="m364.735 349.404c0 5.062-4.116 9.262-9.176 9.36-4.142.081-7.433 3.504-7.353 7.646.08 4.092 3.422 7.354 7.496 7.354.05 0 .1 0 .149-.001 13.169-.258 23.883-11.185 23.883-24.358v-2.324c0-4.143-3.357-7.5-7.5-7.5s-7.5 3.357-7.5 7.5v2.323z"/><path d="m139.73 326.128c4.143 0 7.5-3.357 7.5-7.5v-28.487c0-4.143-3.357-7.5-7.5-7.5s-7.5 3.357-7.5 7.5v28.487c0 4.143 3.357 7.5 7.5 7.5z"/><path d="m213.269 373.766c4.143 0 7.5-3.357 7.5-7.5s-3.357-7.5-7.5-7.5h-28.488c-4.143 0-7.5 3.357-7.5 7.5s3.357 7.5 7.5 7.5z"/><path d="m506.905 272.402-30.438-36.765v-50.882c0-16.536-13.453-29.989-29.988-29.989h-82.686v-.833c0-6.033-3.867-11.167-9.246-13.091v-12.357c0-32.433-26.387-58.819-58.819-58.819h-24.752c-4.143 0-7.5 3.358-7.5 7.5s3.357 7.5 7.5 7.5h24.752c24.162 0 43.819 19.657 43.819 43.819v11.534h-15v-11.534c0-15.891-12.929-28.819-28.819-28.819h-79.492c-15.891 0-28.818 12.928-28.818 28.819v11.534h-15v-11.534c0-24.162 19.657-43.819 43.818-43.819h24.753c4.143 0 7.5-3.358 7.5-7.5s-3.357-7.5-7.5-7.5h-24.753c-32.433 0-58.818 26.386-58.818 58.819v12.356c-5.38 1.924-9.247 7.058-9.247 13.092v.833h-82.685c-16.535 0-29.988 13.453-29.988 29.989v50.882l-30.439 36.766c-5.869 7.09-6.714 17.204-2.103 25.167 3.536 6.108 9.584 10.075 16.596 10.884.871.101 1.738.15 2.6.15 4.863 0 9.512-1.587 13.346-4.534v57.319c0 4.143 3.357 7.5 7.5 7.5s7.5-3.357 7.5-7.5v-176.633c0-8.265 6.724-14.989 14.988-14.989h39.438v51.193c0 16.286 11.805 29.857 27.306 32.63v8.027c0 4.143 3.357 7.5 7.5 7.5s7.5-3.357 7.5-7.5v-7.5h31.819l-2.615 18.816c-.619 4.456.721 8.958 3.675 12.351s7.229 5.338 11.727 5.338h17.74c4.499 0 8.774-1.946 11.728-5.339 2.954-3.394 4.293-7.895 3.674-12.351l-2.614-18.815h79.691c4.143 0 7.5-3.358 7.5-7.5s-3.357-7.5-7.5-7.5h-163.975c-10.012 0-18.156-8.146-18.156-18.157v-51.193h28.246v9.055c0 7.672 6.242 13.914 13.914 13.914h35.665c7.672 0 13.914-6.242 13.914-13.914v-9.055h88.638v9.055c0 7.672 6.242 13.914 13.914 13.914h35.664c7.672 0 13.914-6.242 13.914-13.914v-9.055h28.247v51.193c0 10.012-8.145 18.157-18.156 18.157h-41.843c-4.143 0-7.5 3.358-7.5 7.5s3.357 7.5 7.5 7.5h32.693v7.5c0 4.143 3.357 7.5 7.5 7.5s7.5-3.357 7.5-7.5v-8.027c15.5-2.773 27.306-16.344 27.306-32.63v-51.193h39.438c8.265 0 14.988 6.724 14.988 14.989v227.553c0 8.265-6.724 14.988-14.988 14.988h-380.992c-8.265 0-14.988-6.724-14.988-14.988v-20.933c0-4.143-3.357-7.5-7.5-7.5s-7.5 3.357-7.5 7.5v20.933c0 16.535 13.453 29.988 29.988 29.988h380.993c16.535 0 29.988-13.453 29.988-29.988v-108.239c3.834 2.947 8.481 4.534 13.346 4.534.86 0 1.729-.05 2.6-.15 7.012-.809 13.06-4.775 16.595-10.883 4.612-7.964 3.766-18.079-2.103-25.169zm-479.645 18.96c-1.553 1.652-3.731 2.452-5.989 2.191-2.253-.261-4.196-1.535-5.333-3.498-1.481-2.56-1.21-5.81.676-8.087l18.884-22.81v23.44zm179.958-37.244 2.901 20.88c.01.067.034.247-.129.436-.164.188-.347.188-.415.188h-17.74c-.068 0-.25 0-.414-.188s-.14-.369-.13-.437l2.901-20.879zm-10.555-76.382h-33.493v-22.716h33.493zm15-22.969v-.833c0-6.033-3.867-11.167-9.246-13.091v-12.357c0-7.62 6.199-13.819 13.818-13.819h79.492c7.62 0 13.819 6.199 13.819 13.819v12.357c-5.379 1.925-9.246 7.058-9.246 13.091v.833zm137.13 22.969h-33.492v-22.716h33.492zm147.233 112.321c-1.136 1.962-3.079 3.236-5.332 3.497-2.251.257-4.436-.538-5.989-2.191l-8.237-8.763v-23.44l18.883 22.81c1.886 2.277 2.157 5.526.675 8.087z"/></g></g></svg>