<svg width="165" height="201" viewBox="0 0 165 201" fill="none" xmlns="http://www.w3.org/2000/svg">
<rect x="1.67236" y="1.8562" width="160.919" height="197.642" stroke="#211F1D" stroke-width="3"/>
<g clip-path="url(#clip0)">
<path d="M103.982 133.698H58.1818C46.4818 133.698 36.8818 124.198 36.8818 112.398V66.498H123.182V114.398C123.282 125.098 114.582 133.698 103.982 133.698Z" fill="#8F2B19"/>
<path d="M147.382 200.998L16.8818 198.798V184.898C16.8818 162.198 44.7818 141.098 72.0818 141.098H92.6818C116.982 141.098 147.282 162.398 147.282 182.498V200.998H147.382Z" fill="#383F45"/>
<path d="M88.6819 112.498H72.0819C68.6819 112.498 65.9819 115.198 65.9819 118.598V144.698C65.9819 152.598 72.3819 159.098 80.3819 159.098C88.2819 159.098 94.7819 152.698 94.7819 144.698V118.598C94.7819 115.198 92.0819 112.498 88.6819 112.498Z" fill="#FBC39D"/>
<path d="M65.9819 140.998C65.9819 140.998 67.1819 149.498 80.3819 149.498C93.5819 149.498 94.7819 140.998 94.7819 140.998H65.9819Z" fill="#F9AC7F"/>
<path d="M121.682 79.7979C116.682 79.7979 112.582 83.9979 112.582 89.1979C112.582 94.3979 116.682 98.5978 121.682 98.5978C126.682 98.5978 130.782 94.3979 130.782 89.1979C130.782 83.9979 126.682 79.7979 121.682 79.7979Z" fill="#F9AC7F"/>
<path d="M39.0819 79.7979C34.0819 79.7979 29.9819 83.9979 29.9819 89.1979C29.9819 94.3979 34.0819 98.5978 39.0819 98.5978C44.0819 98.5978 48.1819 94.3979 48.1819 89.1979C48.1819 83.9979 44.0819 79.7979 39.0819 79.7979Z" fill="#F9AC7F"/>
<path d="M77.0818 143.798C78.0818 143.998 79.2818 143.998 80.3818 143.998C83.7818 143.998 87.0818 143.598 90.2818 142.698V142.598C107.882 138.098 120.882 121.498 120.882 101.798V52.398C120.882 29.198 102.782 32.898 80.3818 32.898C57.9818 32.898 39.8818 29.198 39.8818 52.498V101.898C39.7818 123.898 56.1818 142.098 77.0818 143.798Z" fill="#FBC39D"/>
<path d="M115.682 85.598V98.898H98.3817C98.3817 98.898 94.7817 89.298 80.3817 89.298C65.9817 89.298 62.3817 98.898 62.3817 98.898H44.9817V85.598C44.9817 80.298 43.0817 78.598 39.7817 77.998V101.798C39.7817 123.898 56.1817 141.998 76.9817 143.798L76.8817 143.898C77.9817 143.998 79.0817 144.098 80.2817 144.098C81.3817 144.098 82.5817 143.998 83.6817 143.898L83.5817 143.798C104.382 141.998 120.782 123.898 120.782 101.798V77.998C117.682 78.598 115.682 80.298 115.682 85.598Z" fill="#3A0909"/>
<path d="M67.7817 104.698H92.1817C92.1817 104.698 89.9817 114.298 79.9817 114.298C69.9817 114.298 67.7817 104.698 67.7817 104.698Z" fill="#E6E6E6"/>
<path d="M81.182 94.8979H78.882C76.082 94.8979 73.982 92.4979 74.282 89.6979L75.482 80.2979C75.782 77.9979 77.782 76.2979 80.082 76.2979C82.382 76.2979 84.382 77.9979 84.682 80.2979L85.882 89.6979C86.082 92.4979 83.982 94.8979 81.182 94.8979Z" fill="#F9AC7F"/>
<path d="M83.3819 20.8979H74.8819C72.9819 20.8979 71.4819 19.3979 71.4819 17.4979V17.2979C71.4819 15.3979 72.9819 13.8979 74.8819 13.8979H83.3819C85.2819 13.8979 86.7819 15.3979 86.7819 17.2979V17.4979C86.7819 19.3979 85.2819 20.8979 83.3819 20.8979Z" fill="#952C1B"/>
<path d="M36.9819 66.498H123.282V56.298C123.282 35.398 106.282 18.398 85.3819 18.498H74.7819C53.8819 18.498 36.8819 35.398 36.9819 56.398V66.498Z" fill="#F16A51"/>
<path d="M83.0816 40.7979H75.8816C69.3816 40.7979 64.1816 45.9979 64.1816 52.4979V60.5979H94.7816V52.4979C94.7816 45.9979 89.5816 40.7979 83.0816 40.7979Z" fill="#3A0909"/>
<path d="M64.7816 54.3979H94.8816V64.4979H64.7816C61.9816 64.4979 59.6816 62.1979 59.6816 59.3979C59.6816 56.5979 61.9816 54.3979 64.7816 54.3979Z" fill="#F9AB9C"/>
<path d="M69.6816 59.5979C69.6816 60.9979 68.5816 62.0979 67.1816 62.0979C65.7816 62.0979 64.6816 60.9979 64.6816 59.5979C64.6816 58.1979 65.7816 57.0979 67.1816 57.0979C68.5816 57.0979 69.6816 58.1979 69.6816 59.5979Z" fill="#FF553C"/>
<path d="M69.6816 59.5979C69.6816 60.9979 68.5816 62.0979 67.1816 62.0979C65.7816 62.0979 64.6816 60.9979 64.6816 59.5979C64.6816 58.1979 65.7816 57.0979 67.1816 57.0979C68.5816 57.0979 69.6816 58.1979 69.6816 59.5979Z" fill="#DB3A40"/>
<path d="M77.6997 62.065C79.0609 61.834 79.9772 60.5432 79.7462 59.182C79.5152 57.8207 78.2244 56.9045 76.8632 57.1355C75.5019 57.3665 74.5857 58.6572 74.8167 60.0185C75.0477 61.3797 76.3384 62.296 77.6997 62.065Z" fill="#DB3A40"/>
<path d="M89.8818 59.5979C89.8818 60.9979 88.7818 62.0979 87.3818 62.0979C85.9818 62.0979 84.8818 60.9979 84.8818 59.5979C84.8818 58.1979 85.9818 57.0979 87.3818 57.0979C88.7818 57.0979 89.8818 58.1979 89.8818 59.5979Z" fill="#DB3A40"/>
<path d="M64.482 76.2979C64.482 78.3979 62.782 79.9979 60.782 79.9979C58.782 79.9979 57.082 78.2979 57.082 76.2979C57.082 74.1979 58.782 72.5979 60.782 72.5979C62.782 72.5979 64.482 74.1979 64.482 76.2979Z" fill="#111110"/>
<path d="M101.682 76.2979C101.682 78.3979 99.9817 79.9979 97.9817 79.9979C95.8817 79.9979 94.2817 78.2979 94.2817 76.2979C94.2817 74.1979 95.9817 72.5979 97.9817 72.5979C100.082 72.4979 101.682 74.1979 101.682 76.2979Z" fill="#111110"/>
<path d="M94.8817 54.298C94.8817 54.298 102.282 49.898 101.682 42.498L92.1817 45.198L94.1817 36.998L85.7817 45.698L94.8817 54.298Z" fill="#3A0909"/>
</g>
<defs>
<clipPath id="clip0">
<rect width="130.5" height="187.1" fill="white" transform="translate(16.8818 13.8979)"/>
</clipPath>
</defs>
</svg>
